# xmcd CD database file generated by MAGIX-FreeDB-Music_Manager_2007 v2.0beta1
# 
# Track frame offsets:
#      150
#      10812
#      23472
#      36865
#      57747
#      70897
#      82595
#      94867
#      107557
#      122782
#      136487
#      150102
#      163967
#      178195
#      190132
#      203467
# 
# Disc length: 2911 seconds
# 
# Revision: 0 
# Processed by: cddbd v1.5.2PL0 Copyright (c) Steve Scherf et al.
# Submitted via: MAGIX-FreeDB-Music_Manager_2007 v2.0beta1
# 
DISCID=c70b5d10
DTITLE=various. - H.G.(cd1) Country successen.
DYEAR=2003
DGENRE=folk
TTITLE0=sommerset. - another lonely night.
TTITLE1=tulsa. - don't it make my brown eyes blue.tulsa.
TTITLE2=major dundee band. - the longer the distance.
TTITLE3=piet veerman. - me and bobby mcgee.
TTITLE4=the tumbleweeds. - somewhere between.
TTITLE5=ben steneker. - some broken hearts never mend.
TTITLE6=the walkers. - i've got a tiger by the tail.
TTITLE7=early bird. - under your spell again.
TTITLE8=ruud hermans. - she don't know.
TTITLE9=anny schilder. - take me home country roads.
TTITLE10=sommerset. - i still belong to you.
TTITLE11=tulsa. - lovin'her was easier.
TTITLE12=ben steneker and sandra reys. - sweet memories.
TTITLE13=major dundee band. - i bought me a fiddle today.
TTITLE14=piet veerman. - five hundered miles from home.
TTITLE15=the walkers. - familly reunion.
EXTD=
EXTT0=
EXTT1=
EXTT2=
EXTT3=
EXTT4=
EXTT5=
EXTT6=
EXTT7=
EXTT8=
EXTT9=
EXTT10=
EXTT11=
EXTT12=
EXTT13=
EXTT14=
EXTT15=
PLAYORDER=
